<svg id="Layer_1" data-name="Layer 1" xmlns="http://www.w3.org/2000/svg" viewBox="0 0 16 16"><title>Artboard 1</title><path d="M16,15.11H4.26A4.26,4.26,0,0,1,0,10.87V.89H11.76A4.23,4.23,0,0,1,16,5.13ZM11.76,1.65H.78v9.22a3.47,3.47,0,0,0,3.48,3.48h11V5.13a3.48,3.48,0,0,0-3.49-3.48"/><path d="M11.72,2.15a3,3,0,0,1,3,3v8.68H4.3a3,3,0,0,1-3-3V2.15H11.72m-5,6.67A1.23,1.23,0,0,0,7,7.64a1.7,1.7,0,0,0-.67-1,1.55,1.55,0,0,0-1-.42H2.62A2.13,2.13,0,0,1,4.05,7.64C4.34,9,2.75,9.32,2.75,9.32h3a1.55,1.55,0,0,0,1-.5m-.25-5.2H2.62V5.67H6.48Zm6.88,7a1.36,1.36,0,0,0-.5-.84,5,5,0,0,0-.8-.46,1.67,1.67,0,0,0,1-.54,1.23,1.23,0,0,0,.25-1.09,1.54,1.54,0,0,0-.63-.88,1.61,1.61,0,0,0-.92-.34H9.25a2,2,0,0,1,1.3,1.3S11,9.07,9.29,9.4h0a2.53,2.53,0,0,1,.88.59,1.71,1.71,0,0,1,.38.76c.25,1.3-1.3,1.63-1.3,1.63h2.47a1.7,1.7,0,0,0,1.34-.54,1.55,1.55,0,0,0,.34-1.18M9,3.37l-2.39,9.1h.59l2.39-9.1Z"/></svg>